<?xml version="1.0" encoding="UTF-8" standalone="no"?>
<!-- Made by Kevin (http://spacekid.me/) -->

<svg width="76px" height="16px" viewBox="0 0 76 16" version="1.1" xmlns="http://www.w3.org/2000/svg" xmlns:xlink="http://www.w3.org/1999/xlink" xmlns:cc="https://creativecommons.org/licenses/by-nc-nd/3.0/">
  <title>Creative Commons Attribution-NonCommercial-NoDerivs 3.0 Unported License</title>
  <desc>https://creativecommons.org/licenses/by-nc-nd/3.0/</desc>
  <g fill="#404040">
    <path id="cc-nd" d="M67.9858401,0 C70.2239649,0 72.1189555,0.77636725 73.6716663,2.32861325 C75.2234004,3.871582 76,5.7614745 76,8 C76,10.2385255 75.2378046,12.1142578 73.7136579,13.628418 C72.1043075,15.2094727 70.1946686,16 67.9855958,16 C65.8233974,16 63.9474495,15.2143555 62.3572638,13.642578 C60.7859988,12.0715332 60,10.1904297 60,8.00024425 C60,5.819336 60.7859988,3.92895525 62.3572638,2.32910175 C63.9099746,0.77636725 65.7861667,0 67.9858401,0 L67.9858401,0 Z M68.0150144,1.442871 C66.1961944,1.442871 64.6576436,2.085449 63.4004608,3.371582 C62.095427,4.69580075 61.4432152,6.2385255 61.4432152,8 C61.4432152,9.78125 62.0906663,11.314209 63.3856906,12.6000977 C64.6809588,13.895508 66.22366,14.5427247 68.0145262,14.5427247 C69.7952607,14.5427247 71.347483,13.8906252 72.6711933,12.5856935 C73.9282541,11.3666992 74.5569068,9.838379 74.5569068,8 C74.5569068,6.171875 73.9184888,4.62890625 72.6428735,3.371582 C71.3760471,2.08544925 69.8333459,1.442871 68.0150144,1.442871 L68.0150144,1.442871 Z M71.0291286,6.11401375 L71.0291286,7.48535175 L65.2148861,7.48535175 L65.2148861,6.11401375 L71.0291286,6.11401375 L71.0291286,6.11401375 Z M71.0291286,8.685791 L71.0291286,10.0561522 L65.2148861,10.0561522 L65.2148861,8.685791 L71.0291286,8.685791 L71.0291286,8.685791 Z"></path>
    <path id="cc-nc" d="M47.9855,0 C50.233,0 52.12825,0.77125 53.67125,2.314 C55.22325,3.857 56,5.75225 56,8 C56,10.248 55.238,12.119 53.71375,13.6145 C52.095,15.205 50.18525,16 47.9855,16 C45.814,16 43.938,15.2095 42.35725,13.62875 C40.786,12.057 40,10.18125 40,8 C40,5.8095 40.786,3.91425 42.35725,2.31425 C43.9,0.7715 45.776,0 47.9855,0 L47.9855,0 Z M41.8,5.843 C41.562,6.5 41.44275,7.21925 41.44275,8.00025 C41.44275,9.77175 42.09025,11.30525 43.38525,12.60025 C44.69,13.88625 46.233,14.529 48.01375,14.529 C49.814,14.529 51.366,13.877 52.67125,12.57175 C53.138,12.12425 53.50425,11.6575 53.77075,11.17125 L50.75675,9.8285 C50.6515,10.3335 50.397,10.74525 49.9925,11.064 C49.587,11.383 49.10875,11.56675 48.5565,11.614 L48.5565,12.84275 L47.628,12.84275 L47.628,11.614 C46.74225,11.605 45.9325,11.286 45.1995,10.65725 L46.2995,9.543 C46.823,10.0285 47.4185,10.27125 48.08525,10.27125 C48.36125,10.27125 48.59725,10.20975 48.79275,10.0855 C48.98775,9.962 49.08575,9.7575 49.08575,9.47125 C49.08575,9.271 49.014,9.10925 48.87125,8.9855 L48.1,8.65675 L47.15725,8.228 L45.88575,7.67075 L41.8,5.843 L41.8,5.843 Z M48.01425,1.4285 C46.19525,1.4285 44.65725,2.07125 43.4,3.357 C43.0855,3.6715 42.79025,4.0285 42.51425,4.42875 L45.5715,5.8 C45.70475,5.381 45.957,5.04525 46.32875,4.793 C46.69975,4.54075 47.13325,4.40025 47.62875,4.3715 L47.62875,3.14275 L48.5575,3.14275 L48.5575,4.3715 C49.291,4.40975 49.9575,4.65725 50.5575,5.11425 L49.5145,6.18575 C49.06625,5.8715 48.60975,5.7145 48.143,5.7145 C47.89525,5.7145 47.674,5.76225 47.479,5.85725 C47.28375,5.9525 47.186,6.1145 47.186,6.343 C47.186,6.40975 47.20975,6.47625 47.25725,6.543 L48.2715,7.0005 L48.9715,7.31475 L50.2575,7.886 L54.35675,9.7145 C54.4905,9.1525 54.557,8.58125 54.557,8.00025 C54.557,6.162 53.919,4.6145 52.643,3.357 C51.37625,2.07125 49.83275,1.4285 48.01425,1.4285 L48.01425,1.4285 Z"></path>
    <path id="cc-by" d="M27.98575,0 C30.23275,0 32.12825,0.77125 33.67125,2.31425 C35.22325,3.86675 36,5.762 36,8 C36,10.24775 35.23775,12.119 33.71375,13.614 C32.09475,15.20475 30.1855,16 27.98575,16 C25.8235,16 23.9475,15.214 22.35725,13.6425 C20.786,12.071 20,10.1905 20,8 C20,5.80975 20.786,3.9145 22.35725,2.3145 C23.90025,0.77125 25.776,0 27.98575,0 L27.98575,0 Z M28.01425,1.443 C26.19525,1.443 24.65725,2.08125 23.4,3.35725 C22.095,4.69075 21.44275,6.2385 21.44275,8.00025 C21.44275,9.77175 22.09025,11.30525 23.38525,12.59975 C24.6805,13.89525 26.22325,14.5425 28.01375,14.5425 C29.7945,14.5425 31.34725,13.89075 32.671,12.5855 C33.92825,11.376 34.55675,9.8475 34.55675,7.99975 C34.55675,6.18075 33.9185,4.6335 32.64275,3.357 C31.36675,2.081 29.82375,1.443 28.01425,1.443 L28.01425,1.443 Z M30.15725,6.01425 L30.15725,9.2855 L29.24325,9.2855 L29.24325,13.171 L26.75725,13.171 L26.75725,9.28575 L25.84325,9.28575 L25.84325,6.01425 C25.84325,5.87125 25.89325,5.75 25.993,5.65 C26.09325,5.55025 26.21475,5.5 26.35725,5.5 L29.64325,5.5 C29.7765,5.5 29.89575,5.55 30.00025,5.65 C30.1045,5.75 30.15725,5.8715 30.15725,6.01425 L30.15725,6.01425 Z M26.8855,3.95725 C26.8855,3.20525 27.25675,2.82875 28,2.82875 C28.74325,2.82875 29.11425,3.20475 29.11425,3.95725 C29.11425,4.7 28.74275,5.0715 28,5.0715 C27.25725,5.0715 26.8855,4.7 26.8855,3.95725 L26.8855,3.95725 Z"></path>
    <path id="cc-logo" d="M7.98537477,0 C10.2231597,0 12.1284395,0.781262207 13.6997141,2.34303661 C14.4517258,3.09529836 15.0234847,3.9550618 15.4139908,4.9215769 C15.8042469,5.88834201 16,6.91435804 16,8.000125 C16,9.09539212 15.806747,10.1216582 15.421491,11.0784231 C15.0357349,12.0354381 14.466476,12.8809513 13.7144643,13.6142127 C12.9337021,14.3854748 12.0479382,14.976234 11.0571728,15.3857404 C10.0669073,15.7952468 9.0428913,16 7.98587478,16 C6.92885826,16 5.91684245,15.7979968 4.95007734,15.3927405 C3.98356224,14.9882342 3.1167987,14.402475 2.35003672,13.6359631 C1.58327474,12.8694511 1.00001563,12.0049376 0.600009375,11.0429225 C0.200003125,10.0809075 0,9.06689167 0,8.000125 C0,6.94285848 0.20225316,5.9263426 0.607009485,4.95007734 C1.01176581,3.97381209 1.600025,3.10004844 2.37128705,2.32853638 C3.89506086,0.776512133 5.7663401,0 7.98537477,0 L7.98537477,0 Z M8.01437522,1.44302255 C6.18584665,1.44302255 4.64757262,2.08128252 3.39980312,3.35730246 C2.7710433,3.99556243 2.28778575,4.71207363 1.94978047,5.50733605 C1.61127518,6.30259848 1.44252254,7.13361146 1.44252254,8.00037501 C1.44252254,8.8576384 1.61127518,9.68390131 1.94978047,10.4786637 C2.28803575,11.2744262 2.7710433,11.9839372 3.39980312,12.607697 C4.02831294,13.2317067 4.73757402,13.7074642 5.52858638,14.0364693 C6.31884873,14.3649745 7.14761168,14.529227 8.01437522,14.529227 C8.87138862,14.529227 9.70190159,14.3629744 10.5076642,14.0294692 C11.3124268,13.695714 12.0379381,13.2152065 12.6859482,12.5866967 C13.9334677,11.3676776 14.5569775,9.83915374 14.5569775,8.00062501 C14.5569775,7.11486117 14.3949749,6.27684808 14.0712199,5.48633572 C13.7479648,4.69582337 13.2762074,3.99131236 12.6576978,3.37180268 C11.3711777,2.08603259 9.8239035,1.44302255 8.01437522,1.44302255 L8.01437522,1.44302255 Z M7.91412366,6.67185425 L6.84235691,7.22911295 C6.72785512,6.99135924 6.58760293,6.82435663 6.42110033,6.72910514 C6.25434772,6.63410366 6.09959531,6.58635291 5.95659307,6.58635291 C5.24258192,6.58635291 4.88507633,7.05761028 4.88507633,8.00062501 C4.88507633,8.42913171 4.97557774,8.77163706 5.15633057,9.02889108 C5.3373334,9.2861451 5.60408756,9.41489711 5.95659307,9.41489711 C6.42335036,9.41489711 6.7518555,9.18614353 6.94260848,8.72913639 L7.92812388,9.22914421 C7.7186206,9.61990031 7.42811606,9.92690511 7.05661026,10.1506586 C6.68560446,10.3746621 6.27584806,10.4864139 5.82809106,10.4864139 C5.1138299,10.4864139 4.5373209,10.2676604 4.09931405,9.82915358 C3.66130721,9.39114674 3.44230379,8.78163721 3.44230379,8.00087501 C3.44230379,7.23886311 3.66380725,6.63435366 4.10656417,6.18659667 C4.54932108,5.73908967 5.10882983,5.51508617 5.7853404,5.51508617 C6.77610588,5.51458617 7.48536696,5.90034219 7.91412366,6.67185425 L7.91412366,6.67185425 Z M12.5284458,6.67185425 L11.4711792,7.22911295 C11.3569275,6.99135924 11.2161753,6.82435663 11.0496727,6.72910514 C10.88267,6.63410366 10.7229175,6.58635291 10.5711652,6.58635291 C9.85690401,6.58635291 9.49939843,7.05761028 9.49939843,8.00062501 C9.49939843,8.42913171 9.59014985,8.77163706 9.77090267,9.02889108 C9.95165549,9.2861451 10.2181597,9.41489711 10.5711652,9.41489711 C11.0374225,9.41489711 11.3661776,9.18614353 11.5564306,8.72913639 L12.5564462,9.22914421 C12.3376928,9.61990031 12.0421882,9.92690511 11.6711824,10.1506586 C11.2996766,10.3746621 10.8949202,10.4864139 10.4569134,10.4864139 C9.73290208,10.4864139 9.15464304,10.2676604 8.72163628,9.82915358 C8.28762949,9.39114674 8.07112611,8.78163721 8.07112611,8.00087501 C8.07112611,7.23886311 8.29237957,6.63435366 8.73563649,6.18659667 C9.17814341,5.73908967 9.73765215,5.51508617 10.4139127,5.51508617 C11.4044282,5.51458617 12.1096892,5.90034219 12.5284458,6.67185425 L12.5284458,6.67185425 Z"></path>
  </g>
</svg>